<?xml version="1.0" encoding="UTF-8" standalone="no"?>
<!DOCTYPE svg PUBLIC "-//W3C//DTD SVG 1.1//EN" "http://www.w3.org/Graphics/SVG/1.1/DTD/svg11.dtd">
<svg width="100%" height="100%" viewBox="0 0 18 18" version="1.1" xmlns="http://www.w3.org/2000/svg" xmlns:xlink="http://www.w3.org/1999/xlink" xml:space="preserve" xmlns:serif="http://www.serif.com/" style="fill-rule:evenodd;clip-rule:evenodd;stroke-linejoin:round;stroke-miterlimit:2;">
    <g id="Artboard1" transform="matrix(1,0,0,1,83.166,-439.666)">
        <rect x="-83.166" y="439.666" width="17.58" height="17.4" style="fill:none;"/>
        <g transform="matrix(1,0,0,1,-83.8703,439.066)">
            <path d="M2.294,10.89C1.854,10.89 1.474,10.74 1.154,10.44C0.854,10.12 0.704,9.74 0.704,9.3C0.704,8.86 0.854,8.49 1.154,8.19C1.474,7.87 1.854,7.71 2.294,7.71L7.544,7.71C7.704,7.71 7.784,7.62 7.784,7.44L7.784,2.31C7.784,1.85 7.954,1.45 8.294,1.11C8.634,0.77 9.034,0.6 9.494,0.6C9.954,0.6 10.354,0.77 10.694,1.11C11.034,1.45 11.204,1.85 11.204,2.31L11.204,7.44C11.204,7.62 11.284,7.71 11.444,7.71L16.694,7.71C17.134,7.71 17.504,7.87 17.804,8.19C18.124,8.49 18.284,8.86 18.284,9.3C18.284,9.74 18.124,10.12 17.804,10.44C17.504,10.74 17.134,10.89 16.694,10.89L11.444,10.89C11.284,10.89 11.204,10.98 11.204,11.16L11.204,16.29C11.204,16.75 11.034,17.15 10.694,17.49C10.354,17.83 9.954,18 9.494,18C9.034,18 8.634,17.83 8.294,17.49C7.954,17.15 7.784,16.75 7.784,16.29L7.784,11.16C7.784,10.98 7.704,10.89 7.544,10.89L2.294,10.89Z" style="fill-rule:nonzero;"/>
        </g>
    </g>
</svg>
